<mxfile host="app.diagrams.net" modified="2023-05-12T15:55:55.414Z" agent="Mozilla/5.0 (Windows NT 10.0; Win64; x64) AppleWebKit/537.36 (KHTML, like Gecko) Chrome/113.0.0.0 Safari/537.36" etag="gWLeNSWdHFIurHZQH3r0" version="21.2.9" type="device">
  <diagram name="Page-1" id="2cc2dc42-3aac-f2a9-1cec-7a8b7cbee084">
    <mxGraphModel dx="1221" dy="711" grid="1" gridSize="10" guides="1" tooltips="1" connect="1" arrows="1" fold="1" page="1" pageScale="1" pageWidth="1100" pageHeight="850" background="none" math="0" shadow="0">
      <root>
        <mxCell id="0" />
        <mxCell id="1" parent="0" />
        <mxCell id="7026571954dc6520-1" value="" style="strokeWidth=1;shadow=0;dashed=0;align=center;html=1;shape=mxgraph.mockup.containers.browserWindow;rSize=0;strokeColor=#666666;mainText=,;recursiveResize=0;rounded=0;labelBackgroundColor=none;fontFamily=Verdana;fontSize=12" parent="1" vertex="1">
          <mxGeometry x="30" y="20" width="1050" height="820" as="geometry" />
        </mxCell>
        <mxCell id="7026571954dc6520-2" value="Home Page" style="strokeWidth=1;shadow=0;dashed=0;align=center;html=1;shape=mxgraph.mockup.containers.anchor;fontSize=17;fontColor=#666666;align=left;" parent="7026571954dc6520-1" vertex="1">
          <mxGeometry x="60" y="12" width="110" height="26" as="geometry" />
        </mxCell>
        <mxCell id="7026571954dc6520-3" value="https://www.eduteach.com/homepage" style="strokeWidth=1;shadow=0;dashed=0;align=center;html=1;shape=mxgraph.mockup.containers.anchor;rSize=0;fontSize=17;fontColor=#666666;align=left;" parent="7026571954dc6520-1" vertex="1">
          <mxGeometry x="130" y="60" width="480" height="26" as="geometry" />
        </mxCell>
        <mxCell id="8VcgCAM9icAOnQxPm49f-2" value="Welcome to Edu-Teach" style="text;strokeColor=none;fillColor=none;html=1;fontSize=24;fontStyle=1;verticalAlign=middle;align=center;" parent="7026571954dc6520-1" vertex="1">
          <mxGeometry x="430" y="160" width="270" height="40" as="geometry" />
        </mxCell>
        <mxCell id="8VcgCAM9icAOnQxPm49f-1" value="" style="verticalLabelPosition=bottom;shadow=0;dashed=0;align=center;html=1;verticalAlign=top;strokeWidth=1;shape=mxgraph.mockup.navigation.coverFlow;strokeColor=#999999;" parent="7026571954dc6520-1" vertex="1">
          <mxGeometry x="249" y="221" width="580" height="79" as="geometry" />
        </mxCell>
        <mxCell id="LoF_D8ftlG8vqLDM8Cvz-1" value="&lt;font style=&quot;font-size: 7px;&quot;&gt;Created by MLB_11.01_9&lt;/font&gt;" style="text;html=1;strokeColor=none;fillColor=none;align=center;verticalAlign=middle;whiteSpace=wrap;rounded=0;" parent="1" vertex="1">
          <mxGeometry x="460" y="810" width="181" height="30" as="geometry" />
        </mxCell>
        <mxCell id="LoF_D8ftlG8vqLDM8Cvz-2" value="" style="rounded=1;whiteSpace=wrap;html=1;" parent="1" vertex="1">
          <mxGeometry x="35" y="137" width="1040" height="40" as="geometry" />
        </mxCell>
        <mxCell id="LoF_D8ftlG8vqLDM8Cvz-3" value="" style="verticalLabelPosition=bottom;shadow=0;dashed=0;align=center;html=1;verticalAlign=top;strokeWidth=1;shape=mxgraph.mockup.graphics.simpleIcon;strokeColor=#999999;" parent="1" vertex="1">
          <mxGeometry x="56" y="142" width="50" height="30" as="geometry" />
        </mxCell>
        <mxCell id="LoF_D8ftlG8vqLDM8Cvz-5" value="&lt;font size=&quot;1&quot; face=&quot;Comic Sans MS&quot; style=&quot;&quot;&gt;&amp;nbsp; &amp;nbsp; &amp;nbsp; &amp;nbsp;Home&amp;nbsp; &amp;nbsp; My Courses&amp;nbsp; &amp;nbsp;&lt;/font&gt;&lt;span style=&quot;font-family: &amp;quot;Comic Sans MS&amp;quot;; font-size: 11px;&quot;&gt;Contact&amp;nbsp;&lt;/span&gt;&lt;font size=&quot;1&quot; face=&quot;Comic Sans MS&quot; style=&quot;&quot;&gt;&lt;span style=&quot;font-size: 11px;&quot;&gt;Us&amp;nbsp; &amp;nbsp; &amp;nbsp;Help &amp;amp; Support&lt;/span&gt;&lt;/font&gt;" style="text;html=1;strokeColor=none;fillColor=none;align=right;verticalAlign=middle;whiteSpace=wrap;rounded=0;" parent="1" vertex="1">
          <mxGeometry x="680" y="142" width="382" height="30" as="geometry" />
        </mxCell>
        <mxCell id="796VdTpRs6x_GsB5o8sN-1" value="" style="rounded=0;whiteSpace=wrap;html=1;fillColor=#647687;strokeColor=#314354;fontColor=#ffffff;" parent="1" vertex="1">
          <mxGeometry x="30" y="730" width="1050" height="110" as="geometry" />
        </mxCell>
        <mxCell id="796VdTpRs6x_GsB5o8sN-2" value="" style="dashed=0;outlineConnect=0;html=1;align=center;labelPosition=center;verticalLabelPosition=bottom;verticalAlign=top;shape=mxgraph.weblogos.app_store;fillColor=#000000;strokeColor=none" parent="1" vertex="1">
          <mxGeometry x="771.8" y="781.85" width="61.2" height="20" as="geometry" />
        </mxCell>
        <mxCell id="796VdTpRs6x_GsB5o8sN-3" value="" style="dashed=0;outlineConnect=0;html=1;align=center;labelPosition=center;verticalLabelPosition=bottom;verticalAlign=top;shape=mxgraph.weblogos.app_store_iphone;fillColor=#75797C;strokeColor=none" parent="1" vertex="1">
          <mxGeometry x="842.8" y="781.85" width="61.2" height="20" as="geometry" />
        </mxCell>
        <mxCell id="796VdTpRs6x_GsB5o8sN-4" value="" style="dashed=0;outlineConnect=0;html=1;align=center;labelPosition=center;verticalLabelPosition=bottom;verticalAlign=top;shape=mxgraph.webicons.google_play;fillColor=#000000" parent="1" vertex="1">
          <mxGeometry x="688.8" y="781.25" width="69.4" height="20.6" as="geometry" />
        </mxCell>
        <mxCell id="796VdTpRs6x_GsB5o8sN-5" value="&lt;font style=&quot;font-size: 11px;&quot; color=&quot;#ffffff&quot;&gt;Get us on&lt;/font&gt;" style="text;html=1;strokeColor=none;fillColor=none;align=center;verticalAlign=middle;whiteSpace=wrap;rounded=0;" parent="1" vertex="1">
          <mxGeometry x="660" y="751.25" width="60" height="30" as="geometry" />
        </mxCell>
        <mxCell id="796VdTpRs6x_GsB5o8sN-6" value="&lt;p style=&quot;line-height: 90%;&quot;&gt;&lt;/p&gt;&lt;div style=&quot;text-align: left; line-height: 40%; font-size: 11px;&quot;&gt;&lt;p style=&quot;margin: 0px 0px 10px; color: rgb(189, 195, 199); font-family: &amp;quot;Open Sans&amp;quot;, sans-serif; font-size: 14px; line-height: 40%;&quot; dir=&quot;ltr&quot;&gt;&lt;span style=&quot;background-color: rgb(100, 118, 135);&quot;&gt;DO YOU NEED ANY&lt;/span&gt;&lt;/p&gt;&lt;p style=&quot;margin: 0px 0px 10px; color: rgb(189, 195, 199); font-family: &amp;quot;Open Sans&amp;quot;, sans-serif; font-size: 2rem; line-height: 40%;&quot;&gt;&lt;span style=&quot;font-weight: 700; font-size: 20px; background-color: rgb(100, 118, 135);&quot;&gt;SUPPORT ?&lt;/span&gt;&lt;/p&gt;&lt;/div&gt;&lt;p&gt;&lt;/p&gt;" style="text;html=1;strokeColor=none;fillColor=none;align=center;verticalAlign=middle;whiteSpace=wrap;rounded=0;" parent="1" vertex="1">
          <mxGeometry x="110" y="733.5" width="160" height="71.5" as="geometry" />
        </mxCell>
        <mxCell id="796VdTpRs6x_GsB5o8sN-7" value="" style="shape=image;html=1;verticalAlign=top;verticalLabelPosition=bottom;labelBackgroundColor=#ffffff;imageAspect=0;aspect=fixed;image=https://cdn1.iconfinder.com/data/icons/logos-brands-1/24/logo_brand_brands_logos_microsoft_store_windows-128.png" parent="1" vertex="1">
          <mxGeometry x="911" y="774.25" width="30" height="30" as="geometry" />
        </mxCell>
        <mxCell id="796VdTpRs6x_GsB5o8sN-8" value="" style="sketch=0;pointerEvents=1;shadow=0;dashed=0;html=1;strokeColor=none;fillColor=#505050;labelPosition=center;verticalLabelPosition=bottom;verticalAlign=top;outlineConnect=0;align=center;shape=mxgraph.office.concepts.calendar;" parent="1" vertex="1">
          <mxGeometry x="978" y="738" width="89" height="72" as="geometry" />
        </mxCell>
        <mxCell id="796VdTpRs6x_GsB5o8sN-9" value="&lt;p style=&quot;line-height: 90%;&quot;&gt;Visit Support&lt;br&gt;&lt;u&gt;support.eduteach.com&lt;/u&gt;&lt;/p&gt;" style="fillColor=none;strokeColor=none;html=1;fontColor=#0057D8;align=left;fontSize=12;sketch=0;" parent="1" vertex="1">
          <mxGeometry x="144" y="784.85" width="125" height="33" as="geometry" />
        </mxCell>
        <mxCell id="796VdTpRs6x_GsB5o8sN-10" value="" style="html=1;shadow=0;dashed=0;shape=mxgraph.atlassian.checkbox;fillColor=#008465;strokeColor=none;html=1;sketch=0;" parent="1" vertex="1">
          <mxGeometry x="126" y="794.85" width="14" height="14" as="geometry" />
        </mxCell>
        <mxCell id="796VdTpRs6x_GsB5o8sN-11" value="" style="sketch=0;pointerEvents=1;shadow=0;dashed=0;html=1;strokeColor=none;fillColor=#505050;labelPosition=center;verticalLabelPosition=bottom;verticalAlign=top;outlineConnect=0;align=center;shape=mxgraph.office.users.call_center_agent;" parent="1" vertex="1">
          <mxGeometry x="50" y="738.37" width="60" height="71.75" as="geometry" />
        </mxCell>
        <mxCell id="796VdTpRs6x_GsB5o8sN-12" value="" style="shape=mxgraph.signs.tech.telephone_3;html=1;pointerEvents=1;fillColor=#000000;strokeColor=none;verticalLabelPosition=bottom;verticalAlign=top;align=center;" parent="1" vertex="1">
          <mxGeometry x="277" y="755.25" width="29.31" height="40" as="geometry" />
        </mxCell>
        <mxCell id="796VdTpRs6x_GsB5o8sN-13" value="&lt;b&gt;&lt;font style=&quot;font-size: 16px;&quot;&gt;+94 71 234 5678&amp;nbsp;&lt;/font&gt;&lt;/b&gt;" style="text;html=1;strokeColor=none;fillColor=none;align=center;verticalAlign=middle;whiteSpace=wrap;rounded=0;" parent="1" vertex="1">
          <mxGeometry x="287" y="757.37" width="170" height="30" as="geometry" />
        </mxCell>
        <mxCell id="796VdTpRs6x_GsB5o8sN-14" value="" style="rounded=0;whiteSpace=wrap;html=1;fillColor=#000000;fontColor=#ffffff;strokeColor=#432D57;" parent="1" vertex="1">
          <mxGeometry x="30" y="814" width="1050" height="26" as="geometry" />
        </mxCell>
        <mxCell id="796VdTpRs6x_GsB5o8sN-15" value="&lt;font color=&quot;#ffffff&quot; style=&quot;font-size: 7px;&quot;&gt;Created by MLB_11.01_9&lt;/font&gt;" style="text;html=1;strokeColor=none;fillColor=none;align=center;verticalAlign=middle;whiteSpace=wrap;rounded=0;" parent="1" vertex="1">
          <mxGeometry x="460" y="810" width="181" height="30" as="geometry" />
        </mxCell>
        <mxCell id="796VdTpRs6x_GsB5o8sN-16" value="" style="shape=image;html=1;verticalAlign=top;verticalLabelPosition=bottom;labelBackgroundColor=#ffffff;imageAspect=0;aspect=fixed;image=https://cdn2.iconfinder.com/data/icons/social-media-2421/512/Telegram-128.png;imageBackground=default;" parent="1" vertex="1">
          <mxGeometry x="1021" y="817" width="20" height="20" as="geometry" />
        </mxCell>
        <mxCell id="796VdTpRs6x_GsB5o8sN-17" value="" style="shape=image;html=1;verticalAlign=top;verticalLabelPosition=bottom;labelBackgroundColor=#ffffff;imageAspect=0;aspect=fixed;image=https://cdn3.iconfinder.com/data/icons/picons-social/57/46-facebook-128.png;imageBackground=default;" parent="1" vertex="1">
          <mxGeometry x="990" y="817.85" width="20" height="20" as="geometry" />
        </mxCell>
        <mxCell id="796VdTpRs6x_GsB5o8sN-18" value="" style="shape=image;html=1;verticalAlign=top;verticalLabelPosition=bottom;labelBackgroundColor=#ffffff;imageAspect=0;aspect=fixed;image=https://cdn1.iconfinder.com/data/icons/social-media-circle-7/512/Circled_Twitter_svg-128.png;imageBackground=default;" parent="1" vertex="1">
          <mxGeometry x="959" y="817.85" width="20" height="20" as="geometry" />
        </mxCell>
        <mxCell id="796VdTpRs6x_GsB5o8sN-19" value="" style="shape=image;html=1;verticalAlign=top;verticalLabelPosition=bottom;labelBackgroundColor=#ffffff;imageAspect=0;aspect=fixed;image=https://cdn4.iconfinder.com/data/icons/ionicons/512/icon-social-github-128.png;imageBackground=default;" parent="1" vertex="1">
          <mxGeometry x="1051" y="817.85" width="20" height="20" as="geometry" />
        </mxCell>
        <mxCell id="796VdTpRs6x_GsB5o8sN-20" value="" style="shape=image;html=1;verticalAlign=top;verticalLabelPosition=bottom;labelBackgroundColor=#ffffff;imageAspect=0;aspect=fixed;image=https://cdn0.iconfinder.com/data/icons/eon-social-media-contact-info-2/32/in_linkedin_portfolio_social_media-128.png;imageBackground=default;" parent="1" vertex="1">
          <mxGeometry x="930" y="818" width="20" height="20" as="geometry" />
        </mxCell>
        <mxCell id="796VdTpRs6x_GsB5o8sN-21" value="" style="shape=image;html=1;verticalAlign=top;verticalLabelPosition=bottom;labelBackgroundColor=#ffffff;imageAspect=0;aspect=fixed;image=https://cdn0.iconfinder.com/data/icons/social-media-and-logos-12/32/Google_Google-128.png;imageBackground=default;" parent="1" vertex="1">
          <mxGeometry x="899" y="818" width="20" height="20" as="geometry" />
        </mxCell>
        <mxCell id="796VdTpRs6x_GsB5o8sN-22" value="&lt;font color=&quot;#ffffff&quot;&gt;https://www.eduteach.com&lt;/font&gt;" style="text;html=1;strokeColor=none;fillColor=none;align=center;verticalAlign=middle;whiteSpace=wrap;rounded=0;" parent="1" vertex="1">
          <mxGeometry x="40" y="812" width="170" height="30" as="geometry" />
        </mxCell>
        <mxCell id="796VdTpRs6x_GsB5o8sN-23" value="" style="shape=mxgraph.signs.tech.mail;html=1;pointerEvents=1;fillColor=#647687;strokeColor=#314354;verticalLabelPosition=bottom;verticalAlign=top;align=center;fontColor=#ffffff;" parent="1" vertex="1">
          <mxGeometry x="210" y="818" width="18" height="17" as="geometry" />
        </mxCell>
        <mxCell id="796VdTpRs6x_GsB5o8sN-24" value="&lt;font color=&quot;#ffffff&quot;&gt;info@eduteach.lk&lt;/font&gt;" style="text;html=1;strokeColor=none;fillColor=none;align=center;verticalAlign=middle;whiteSpace=wrap;rounded=0;" parent="1" vertex="1">
          <mxGeometry x="196" y="814" width="170" height="30" as="geometry" />
        </mxCell>
        <mxCell id="796VdTpRs6x_GsB5o8sN-25" value="" style="html=1;dashed=0;aspect=fixed;verticalLabelPosition=bottom;verticalAlign=top;align=center;shape=mxgraph.gmdl.bookmark;strokeColor=none;fillColor=#737373;shadow=0;sketch=0;" parent="1" vertex="1">
          <mxGeometry x="38" y="818" width="9" height="15" as="geometry" />
        </mxCell>
        <mxCell id="8VcgCAM9icAOnQxPm49f-7" value="" style="endArrow=none;html=1;rounded=0;entryX=0.168;entryY=0.007;entryDx=0;entryDy=0;entryPerimeter=0;" parent="1" edge="1">
          <mxGeometry width="50" height="50" relative="1" as="geometry">
            <mxPoint x="238" y="718" as="sourcePoint" />
            <mxPoint x="238.03999999999996" y="181.77999999999997" as="targetPoint" />
          </mxGeometry>
        </mxCell>
        <mxCell id="8VcgCAM9icAOnQxPm49f-8" value="" style="endArrow=none;html=1;rounded=0;entryX=0.168;entryY=0.007;entryDx=0;entryDy=0;entryPerimeter=0;" parent="1" edge="1">
          <mxGeometry width="50" height="50" relative="1" as="geometry">
            <mxPoint x="932.8" y="718.22" as="sourcePoint" />
            <mxPoint x="932.8399999999999" y="181.99999999999997" as="targetPoint" />
          </mxGeometry>
        </mxCell>
        <mxCell id="8VcgCAM9icAOnQxPm49f-9" value="" style="rounded=0;whiteSpace=wrap;html=1;" parent="1" vertex="1">
          <mxGeometry x="880" y="180" width="189" height="40" as="geometry" />
        </mxCell>
        <mxCell id="8VcgCAM9icAOnQxPm49f-6" value="" style="rounded=0;whiteSpace=wrap;html=1;fillColor=none;" parent="1" vertex="1">
          <mxGeometry x="40" y="180" width="1030" height="540" as="geometry" />
        </mxCell>
        <mxCell id="8VcgCAM9icAOnQxPm49f-10" value="" style="verticalLabelPosition=bottom;shadow=0;dashed=0;align=center;html=1;verticalAlign=top;strokeWidth=1;shape=mxgraph.mockup.containers.userMale;strokeColor=#FFFFFF;strokeColor2=#008cff;labelBorderColor=none;labelBackgroundColor=none;" parent="1" vertex="1">
          <mxGeometry x="1033" y="185" width="30" height="30" as="geometry" />
        </mxCell>
        <mxCell id="8VcgCAM9icAOnQxPm49f-11" value="&lt;b&gt;&lt;font style=&quot;font-size: 15px;&quot;&gt;Username&lt;/font&gt;&lt;/b&gt;&lt;br&gt;Register no&amp;nbsp;" style="text;html=1;strokeColor=none;fillColor=none;align=center;verticalAlign=middle;whiteSpace=wrap;rounded=0;" parent="1" vertex="1">
          <mxGeometry x="890" y="185" width="110" height="30" as="geometry" />
        </mxCell>
        <mxCell id="8VcgCAM9icAOnQxPm49f-17" value="" style="rounded=0;whiteSpace=wrap;html=1;labelBackgroundColor=none;" parent="1" vertex="1">
          <mxGeometry x="281" y="350" width="170" height="190" as="geometry" />
        </mxCell>
        <mxCell id="8VcgCAM9icAOnQxPm49f-14" value="Categories" style="rounded=0;whiteSpace=wrap;html=1;textOpacity=70;" parent="1" vertex="1">
          <mxGeometry x="306" y="365" width="120" height="60" as="geometry" />
        </mxCell>
        <mxCell id="8VcgCAM9icAOnQxPm49f-18" value="" style="rounded=0;whiteSpace=wrap;html=1;labelBackgroundColor=none;" parent="1" vertex="1">
          <mxGeometry x="484" y="350" width="170" height="190" as="geometry" />
        </mxCell>
        <mxCell id="8VcgCAM9icAOnQxPm49f-15" value="Categories" style="rounded=0;whiteSpace=wrap;html=1;textOpacity=70;" parent="1" vertex="1">
          <mxGeometry x="508.99999999999994" y="365" width="120" height="60" as="geometry" />
        </mxCell>
        <mxCell id="8VcgCAM9icAOnQxPm49f-19" value="" style="rounded=0;whiteSpace=wrap;html=1;labelBackgroundColor=none;" parent="1" vertex="1">
          <mxGeometry x="684" y="350" width="170" height="190" as="geometry" />
        </mxCell>
        <mxCell id="8VcgCAM9icAOnQxPm49f-16" value="Categories" style="rounded=0;whiteSpace=wrap;html=1;textOpacity=70;" parent="1" vertex="1">
          <mxGeometry x="709" y="365" width="120" height="60" as="geometry" />
        </mxCell>
        <mxCell id="8VcgCAM9icAOnQxPm49f-20" value="&lt;font style=&quot;font-size: 5px;&quot;&gt;Lorem ipsum dolor sit amet, consectetur adipisicing elit, sed do eiusmod tempor incididunt ut labore et dolore magna aliqua. Ut enim ad minim veniam, quis nostrud exercitation ullamco laboris nisi ut aliquip ex ea commodo consequat. Duis aute irure dolor in reprehenderit in voluptate velit esse cillum dolore eu fugiat nulla pariatur. Excepteur sint occaecat cupidatat non proident, sunt in culpa qui officia deserunt mollit anim id est laborum.&lt;/font&gt;" style="text;spacingTop=-5;whiteSpace=wrap;html=1;align=left;fontSize=12;fontFamily=Helvetica;fillColor=none;strokeColor=none;" parent="1" vertex="1">
          <mxGeometry x="288" y="426" width="158" height="116" as="geometry" />
        </mxCell>
        <mxCell id="8VcgCAM9icAOnQxPm49f-21" value="&lt;font style=&quot;font-size: 5px;&quot;&gt;Lorem ipsum dolor sit amet, consectetur adipisicing elit, sed do eiusmod tempor incididunt ut labore et dolore magna aliqua. Ut enim ad minim veniam, quis nostrud exercitation ullamco laboris nisi ut aliquip ex ea commodo consequat. Duis aute irure dolor in reprehenderit in voluptate velit esse cillum dolore eu fugiat nulla pariatur. Excepteur sint occaecat cupidatat non proident, sunt in culpa qui officia deserunt mollit anim id est laborum.&lt;/font&gt;" style="text;spacingTop=-5;whiteSpace=wrap;html=1;align=left;fontSize=12;fontFamily=Helvetica;fillColor=none;strokeColor=none;" parent="1" vertex="1">
          <mxGeometry x="490" y="426" width="158" height="116" as="geometry" />
        </mxCell>
        <mxCell id="8VcgCAM9icAOnQxPm49f-22" value="&lt;font style=&quot;font-size: 5px;&quot;&gt;Lorem ipsum dolor sit amet, consectetur adipisicing elit, sed do eiusmod tempor incididunt ut labore et dolore magna aliqua. Ut enim ad minim veniam, quis nostrud exercitation ullamco laboris nisi ut aliquip ex ea commodo consequat. Duis aute irure dolor in reprehenderit in voluptate velit esse cillum dolore eu fugiat nulla pariatur. Excepteur sint occaecat cupidatat non proident, sunt in culpa qui officia deserunt mollit anim id est laborum.&lt;/font&gt;" style="text;spacingTop=-5;whiteSpace=wrap;html=1;align=left;fontSize=12;fontFamily=Helvetica;fillColor=none;strokeColor=none;" parent="1" vertex="1">
          <mxGeometry x="691" y="426" width="158" height="116" as="geometry" />
        </mxCell>
        <mxCell id="8VcgCAM9icAOnQxPm49f-23" value="&lt;h2 style=&quot;text-align: left; margin: 10px 0px; font-family: &amp;quot;Pontano Sans&amp;quot;, sans-serif; line-height: 70%; background-color: rgb(255, 255, 255); font-size: 16px;&quot;&gt;&lt;font style=&quot;font-size: 16px;&quot;&gt;Examination&lt;/font&gt;&lt;/h2&gt;&lt;div style=&quot;text-align: left; font-family: &amp;quot;Open Sans&amp;quot;, sans-serif; font-size: 10px; text-decoration-line: none; line-height: 2em; font-weight: bold; color: rgb(104, 104, 104) !important;&quot;&gt;&lt;a style=&quot;background-color: initial; text-decoration-line: none; line-height: 2em; color: rgb(104, 104, 104) !important;&quot; class=&quot;collapsed&quot; href=&quot;https://courseweb.sliit.lk/my/#collapseThree&quot; data-parent=&quot;#accordion&quot; data-toggle=&quot;collapse&quot;&gt;Examination Guidelines&lt;/a&gt;&lt;a style=&quot;font-family: &amp;quot;Open Sans&amp;quot;, sans-serif; font-size: 10px; text-decoration-line: none; line-height: 2em; font-weight: bold; color: rgb(104, 104, 104) !important;&quot; class=&quot;collapsed&quot; href=&quot;https://courseweb.sliit.lk/my/#collapseThree&quot; data-parent=&quot;#accordion&quot; data-toggle=&quot;collapse&quot;&gt;&lt;br&gt;&lt;/a&gt;&lt;/div&gt;&lt;font face=&quot;Open Sans, sans-serif&quot; color=&quot;#555555&quot;&gt;&lt;div style=&quot;text-align: left;&quot;&gt;&lt;span style=&quot;font-size: 10px;&quot;&gt;&lt;br&gt;&lt;/span&gt;&lt;/div&gt;&lt;/font&gt;&lt;div style=&quot;text-align: left; font-family: &amp;quot;Open Sans&amp;quot;, sans-serif; font-size: 10px; text-decoration-line: none; line-height: 2em; font-weight: bold; color: rgb(104, 104, 104) !important;&quot;&gt;&lt;a style=&quot;background-color: initial; text-decoration-line: none; line-height: 2em; color: rgb(104, 104, 104) !important;&quot; class=&quot;&quot; href=&quot;https://courseweb.sliit.lk/my/#collapseOne&quot; data-parent=&quot;#accordion&quot; data-toggle=&quot;collapse&quot;&gt;Examination Schedules&lt;/a&gt;&lt;a style=&quot;font-family: &amp;quot;Open Sans&amp;quot;, sans-serif; font-size: 10px; text-decoration-line: none; line-height: 2em; font-weight: bold; color: rgb(104, 104, 104) !important;&quot; class=&quot;&quot; href=&quot;https://courseweb.sliit.lk/my/#collapseOne&quot; data-parent=&quot;#accordion&quot; data-toggle=&quot;collapse&quot;&gt;&lt;br&gt;&lt;/a&gt;&lt;/div&gt;&lt;span style=&quot;background-color: rgb(255, 255, 255); color: rgb(85, 85, 85); font-family: &amp;quot;Open Sans&amp;quot;, sans-serif; font-size: 10px;&quot;&gt;&lt;div style=&quot;text-align: left;&quot;&gt;&amp;nbsp;&lt;a style=&quot;color: rgb(239, 163, 0); text-decoration-line: none; margin: 20px 0px;&quot; href=&quot;https://courseweb.sliit.lk/course/view.php?id=3&amp;amp;section=1&quot;&gt;Eligibility&lt;/a&gt;&lt;/div&gt;&lt;/span&gt;&lt;span style=&quot;background-color: rgb(255, 255, 255); color: rgb(85, 85, 85); font-family: &amp;quot;Open Sans&amp;quot;, sans-serif; font-size: 10px;&quot;&gt;&lt;div style=&quot;text-align: left;&quot;&gt;&amp;nbsp;&lt;a style=&quot;color: rgb(239, 163, 0); text-decoration-line: none; margin: 20px 0px;&quot; href=&quot;https://courseweb.sliit.lk/course/view.php?id=3&amp;amp;section=1&quot;&gt;Hall Arrangement&lt;/a&gt;&lt;/div&gt;&lt;/span&gt;&lt;span style=&quot;background-color: rgb(255, 255, 255); color: rgb(85, 85, 85); font-family: &amp;quot;Open Sans&amp;quot;, sans-serif; font-size: 10px;&quot;&gt;&lt;div style=&quot;text-align: left;&quot;&gt;&amp;nbsp;&lt;a style=&quot;color: rgb(239, 163, 0); text-decoration-line: none; margin: 20px 0px;&quot; href=&quot;https://courseweb.sliit.lk/course/view.php?id=3&amp;amp;section=1&quot;&gt;Timetable&lt;/a&gt;&lt;/div&gt;&lt;/span&gt;&lt;div style=&quot;text-align: left; font-family: &amp;quot;Open Sans&amp;quot;, sans-serif; font-size: 10px; text-decoration-line: none; line-height: 2em; font-weight: bold; color: rgb(104, 104, 104) !important;&quot;&gt;&lt;a style=&quot;background-color: initial; text-decoration-line: none; line-height: 2em; color: rgb(104, 104, 104) !important;&quot; class=&quot;collapsed&quot; href=&quot;https://courseweb.sliit.lk/my/#collapseTwo&quot; data-parent=&quot;#accordion&quot; data-toggle=&quot;collapse&quot;&gt;Examination Links&lt;/a&gt;&lt;a style=&quot;font-family: &amp;quot;Open Sans&amp;quot;, sans-serif; font-size: 10px; text-decoration-line: none; line-height: 2em; font-weight: bold; color: rgb(104, 104, 104) !important;&quot; class=&quot;collapsed&quot; href=&quot;https://courseweb.sliit.lk/my/#collapseTwo&quot; data-parent=&quot;#accordion&quot; data-toggle=&quot;collapse&quot;&gt;&lt;br&gt;&lt;/a&gt;&lt;/div&gt;&lt;font face=&quot;Open Sans, sans-serif&quot; color=&quot;#555555&quot;&gt;&lt;div style=&quot;text-align: left;&quot;&gt;&lt;span style=&quot;font-size: 10px;&quot;&gt;&lt;br&gt;&lt;/span&gt;&lt;/div&gt;&lt;/font&gt;&lt;div style=&quot;color: rgb(85, 85, 85); font-family: &amp;quot;Open Sans&amp;quot;, sans-serif; background-color: rgb(255, 255, 255); line-height: 80%; font-size: 10px;&quot; class=&quot;panel-group&quot;&gt;&lt;div style=&quot;border-radius: 4px; border: none; box-shadow: none; margin-bottom: 8px; line-height: 80%;&quot; class=&quot;panel panel-default&quot;&gt;&lt;div style=&quot;text-align: left; border-bottom: 1px solid rgb(221, 221, 221); border-top-left-radius: 3px; border-top-right-radius: 3px; padding: 1px 8px; background-color: rgb(245, 245, 245); border-top-color: rgb(221, 221, 221); border-right-color: rgb(221, 221, 221); border-left-color: rgb(221, 221, 221); line-height: 80%; color: rgb(119, 119, 119) !important;&quot; class=&quot;panel-heading&quot;&gt;&lt;a style=&quot;text-decoration-line: none; line-height: 2em; font-weight: bold; color: rgb(104, 104, 104) !important;&quot; class=&quot;collapsed&quot; target=&quot;_blank&quot; href=&quot;http://student.sliit.lk/profile/&quot;&gt;&lt;font style=&quot;font-size: 10px;&quot;&gt;Results&lt;/font&gt;&lt;/a&gt;&lt;/div&gt;&lt;/div&gt;&lt;/div&gt;&lt;div style=&quot;color: rgb(85, 85, 85); font-family: &amp;quot;Open Sans&amp;quot;, sans-serif; background-color: rgb(255, 255, 255); line-height: 80%; font-size: 10px;&quot; id=&quot;accordion&quot; class=&quot;panel-group&quot;&gt;&lt;div style=&quot;border-radius: 4px; border: none; box-shadow: none; margin-bottom: 8px; line-height: 80%;&quot; class=&quot;panel panel-default&quot;&gt;&lt;div style=&quot;position: relative; height: 0px; overflow: hidden; transition: height 0.35s ease 0s; line-height: 80%;&quot; class=&quot;panel-collapse collapse&quot; id=&quot;collapseThree&quot;&gt;&lt;div style=&quot;text-align: left; padding: 12px 8px; line-height: 80%;&quot; class=&quot;panel-body&quot;&gt;&lt;ul style=&quot;padding: 0px; margin: 0px 0px 10px 25px; line-height: 80%;&quot; class=&quot;list-style-3 colored&quot;&gt;&lt;li style=&quot;line-height: 20px; list-style: outside none none; margin: 20px 0px;&quot;&gt;&lt;font style=&quot;font-size: 10px;&quot;&gt;&lt;a style=&quot;color: rgb(239, 163, 0); text-decoration-line: none; margin: 10px 0px;&quot; target=&quot;_blank&quot; href=&quot;https://netexam.sliit.lk/course/view.php?id=638&quot;&gt;&lt;/a&gt;&lt;/font&gt;&lt;/li&gt;&lt;li style=&quot;line-height: 20px; list-style: outside none none; margin: 20px 0px;&quot;&gt;&lt;font style=&quot;font-size: 10px;&quot;&gt;&lt;a style=&quot;color: rgb(239, 163, 0); text-decoration-line: none; margin: 10px 0px;&quot; target=&quot;_blank&quot; href=&quot;https://netexam.sliit.lk/mod/page/view.php?id=2745&quot;&gt;&lt;/a&gt;&lt;/font&gt;&lt;/li&gt;&lt;/ul&gt;&lt;/div&gt;&lt;/div&gt;&lt;/div&gt;&lt;/div&gt;&lt;div style=&quot;color: rgb(85, 85, 85); font-family: &amp;quot;Open Sans&amp;quot;, sans-serif; text-align: start; background-color: rgb(255, 255, 255); line-height: 80%; font-size: 10px;&quot; class=&quot;panel-group&quot;&gt;&lt;div style=&quot;border-radius: 4px; border: none; box-shadow: none; margin-bottom: 8px; line-height: 80%;&quot; class=&quot;panel panel-default&quot;&gt;&lt;div style=&quot;position: relative; height: 0px; overflow: hidden; transition: height 0.35s ease 0s; line-height: 80%;&quot; class=&quot;panel-collapse collapse&quot; id=&quot;collapseTwo&quot;&gt;&lt;div style=&quot;padding: 12px 8px; line-height: 80%;&quot; class=&quot;panel-body&quot;&gt;&lt;ul style=&quot;padding: 0px; margin: 0px 0px 10px 25px; line-height: 80%;&quot; class=&quot;list-style-3 colored&quot;&gt;&lt;li style=&quot;line-height: 20px; list-style: outside none none; margin: 20px 0px;&quot;&gt;&lt;font style=&quot;font-size: 10px;&quot;&gt;&lt;a style=&quot;color: rgb(239, 163, 0); text-decoration-line: none; margin: 10px 0px;&quot; href=&quot;https://courseweb.sliit.lk/course/view.php?id=66&amp;amp;section=1&quot;&gt;&lt;/a&gt;&lt;/font&gt;&lt;/li&gt;&lt;li style=&quot;line-height: 20px; list-style: outside none none; margin: 20px 0px;&quot;&gt;&lt;font style=&quot;font-size: 10px;&quot;&gt;&lt;a style=&quot;color: rgb(239, 163, 0); text-decoration-line: none; margin: 10px 0px;&quot; href=&quot;https://courseweb.sliit.lk/course/view.php?id=67&amp;amp;section=1&quot;&gt;&lt;/a&gt;&lt;/font&gt;&lt;/li&gt;&lt;li style=&quot;line-height: 20px; list-style: outside none none; margin: 20px 0px;&quot;&gt;&lt;font style=&quot;font-size: 10px;&quot;&gt;&lt;a style=&quot;color: rgb(239, 163, 0); text-decoration-line: none; margin: 10px 0px;&quot; href=&quot;https://courseweb.sliit.lk/course/view.php?id=65&amp;amp;section=1&quot;&gt;&lt;/a&gt;&lt;/font&gt;&lt;/li&gt;&lt;/ul&gt;&lt;/div&gt;&lt;/div&gt;&lt;/div&gt;&lt;/div&gt;" style="text;html=1;strokeColor=none;fillColor=none;align=center;verticalAlign=middle;whiteSpace=wrap;rounded=0;" parent="1" vertex="1">
          <mxGeometry x="931.75" y="230" width="136.5" height="185" as="geometry" />
        </mxCell>
        <mxCell id="8VcgCAM9icAOnQxPm49f-26" value="" style="verticalLabelPosition=bottom;shadow=0;dashed=0;align=center;html=1;verticalAlign=top;strokeWidth=1;shape=mxgraph.mockup.misc.map;" parent="1" vertex="1">
          <mxGeometry x="50" y="550" width="178" height="140" as="geometry" />
        </mxCell>
        <mxCell id="8VcgCAM9icAOnQxPm49f-27" value="" style="verticalLabelPosition=bottom;shadow=0;dashed=0;align=center;html=1;verticalAlign=top;strokeWidth=1;shape=mxgraph.mockup.graphics.simpleIcon;strokeColor=#999999;fillColor=#ffffff;" parent="1" vertex="1">
          <mxGeometry x="58" y="235" width="34" height="38" as="geometry" />
        </mxCell>
        <mxCell id="8VcgCAM9icAOnQxPm49f-28" value="" style="verticalLabelPosition=bottom;shadow=0;dashed=0;align=center;html=1;verticalAlign=top;strokeWidth=1;shape=mxgraph.mockup.graphics.simpleIcon;strokeColor=#999999;fillColor=#ffffff;" parent="1" vertex="1">
          <mxGeometry x="122" y="235" width="34" height="38" as="geometry" />
        </mxCell>
        <mxCell id="8VcgCAM9icAOnQxPm49f-29" value="" style="verticalLabelPosition=bottom;shadow=0;dashed=0;align=center;html=1;verticalAlign=top;strokeWidth=1;shape=mxgraph.mockup.graphics.simpleIcon;strokeColor=#999999;fillColor=#ffffff;" parent="1" vertex="1">
          <mxGeometry x="187" y="235" width="34" height="38" as="geometry" />
        </mxCell>
        <mxCell id="8VcgCAM9icAOnQxPm49f-30" value="" style="verticalLabelPosition=bottom;shadow=0;dashed=0;align=center;html=1;verticalAlign=top;strokeWidth=1;shape=mxgraph.mockup.graphics.simpleIcon;strokeColor=#999999;fillColor=#ffffff;" parent="1" vertex="1">
          <mxGeometry x="58" y="310" width="34" height="38" as="geometry" />
        </mxCell>
        <mxCell id="8VcgCAM9icAOnQxPm49f-31" value="" style="verticalLabelPosition=bottom;shadow=0;dashed=0;align=center;html=1;verticalAlign=top;strokeWidth=1;shape=mxgraph.mockup.graphics.simpleIcon;strokeColor=#999999;fillColor=#ffffff;" parent="1" vertex="1">
          <mxGeometry x="122" y="310" width="34" height="38" as="geometry" />
        </mxCell>
        <mxCell id="8VcgCAM9icAOnQxPm49f-32" value="" style="verticalLabelPosition=bottom;shadow=0;dashed=0;align=center;html=1;verticalAlign=top;strokeWidth=1;shape=mxgraph.mockup.graphics.simpleIcon;strokeColor=#999999;fillColor=#ffffff;" parent="1" vertex="1">
          <mxGeometry x="187" y="310" width="34" height="38" as="geometry" />
        </mxCell>
        <mxCell id="8VcgCAM9icAOnQxPm49f-33" value="" style="verticalLabelPosition=bottom;shadow=0;dashed=0;align=center;html=1;verticalAlign=top;strokeWidth=1;shape=mxgraph.mockup.graphics.simpleIcon;strokeColor=#999999;fillColor=#ffffff;" parent="1" vertex="1">
          <mxGeometry x="58" y="385" width="34" height="38" as="geometry" />
        </mxCell>
        <mxCell id="8VcgCAM9icAOnQxPm49f-34" value="" style="verticalLabelPosition=bottom;shadow=0;dashed=0;align=center;html=1;verticalAlign=top;strokeWidth=1;shape=mxgraph.mockup.graphics.simpleIcon;strokeColor=#999999;fillColor=#ffffff;" parent="1" vertex="1">
          <mxGeometry x="122" y="385" width="34" height="38" as="geometry" />
        </mxCell>
        <mxCell id="8VcgCAM9icAOnQxPm49f-35" value="" style="verticalLabelPosition=bottom;shadow=0;dashed=0;align=center;html=1;verticalAlign=top;strokeWidth=1;shape=mxgraph.mockup.graphics.simpleIcon;strokeColor=#999999;fillColor=#ffffff;" parent="1" vertex="1">
          <mxGeometry x="187" y="385" width="34" height="38" as="geometry" />
        </mxCell>
        <mxCell id="8VcgCAM9icAOnQxPm49f-36" value="" style="strokeWidth=1;shadow=0;dashed=0;align=center;html=1;shape=mxgraph.mockup.forms.rrect;rSize=5;strokeColor=#999999;fillColor=#ffffff;" parent="1" vertex="1">
          <mxGeometry x="945" y="606" width="110" height="100" as="geometry" />
        </mxCell>
        <mxCell id="8VcgCAM9icAOnQxPm49f-37" value="October 2014" style="strokeWidth=1;shadow=0;dashed=0;align=center;html=1;shape=mxgraph.mockup.forms.anchor;fontColor=#999999;" parent="8VcgCAM9icAOnQxPm49f-36" vertex="1">
          <mxGeometry x="20.625" y="4.571428571428571" width="68.75" height="11.428571428571429" as="geometry" />
        </mxCell>
        <mxCell id="8VcgCAM9icAOnQxPm49f-38" value="&lt;" style="strokeWidth=1;shadow=0;dashed=0;align=center;html=1;shape=mxgraph.mockup.forms.rrect;rSize=4;strokeColor=#999999;fontColor=#008cff;fontSize=19;fontStyle=1;" parent="8VcgCAM9icAOnQxPm49f-36" vertex="1">
          <mxGeometry x="5.5" y="4.571428571428571" width="17.1875" height="11.428571428571429" as="geometry" />
        </mxCell>
        <mxCell id="8VcgCAM9icAOnQxPm49f-39" value="&gt;" style="strokeWidth=1;shadow=0;dashed=0;align=center;html=1;shape=mxgraph.mockup.forms.rrect;rSize=4;strokeColor=#999999;fontColor=#008cff;fontSize=19;fontStyle=1;" parent="8VcgCAM9icAOnQxPm49f-36" vertex="1">
          <mxGeometry x="87.3125" y="4.571428571428571" width="17.1875" height="11.428571428571429" as="geometry" />
        </mxCell>
        <mxCell id="8VcgCAM9icAOnQxPm49f-40" value="Mo" style="strokeWidth=1;shadow=0;dashed=0;align=center;html=1;shape=mxgraph.mockup.forms.anchor;fontColor=#999999;" parent="8VcgCAM9icAOnQxPm49f-36" vertex="1">
          <mxGeometry x="6.875" y="16" width="13.75" height="11.428571428571429" as="geometry" />
        </mxCell>
        <mxCell id="8VcgCAM9icAOnQxPm49f-41" value="Tu" style="strokeWidth=1;shadow=0;dashed=0;align=center;html=1;shape=mxgraph.mockup.forms.anchor;fontColor=#999999;" parent="8VcgCAM9icAOnQxPm49f-36" vertex="1">
          <mxGeometry x="20.625" y="16" width="13.75" height="11.428571428571429" as="geometry" />
        </mxCell>
        <mxCell id="8VcgCAM9icAOnQxPm49f-42" value="We" style="strokeWidth=1;shadow=0;dashed=0;align=center;html=1;shape=mxgraph.mockup.forms.anchor;fontColor=#999999;" parent="8VcgCAM9icAOnQxPm49f-36" vertex="1">
          <mxGeometry x="34.375" y="16" width="13.75" height="11.428571428571429" as="geometry" />
        </mxCell>
        <mxCell id="8VcgCAM9icAOnQxPm49f-43" value="Th" style="strokeWidth=1;shadow=0;dashed=0;align=center;html=1;shape=mxgraph.mockup.forms.anchor;fontColor=#999999;" parent="8VcgCAM9icAOnQxPm49f-36" vertex="1">
          <mxGeometry x="48.125" y="16" width="13.75" height="11.428571428571429" as="geometry" />
        </mxCell>
        <mxCell id="8VcgCAM9icAOnQxPm49f-44" value="Fr" style="strokeWidth=1;shadow=0;dashed=0;align=center;html=1;shape=mxgraph.mockup.forms.anchor;fontColor=#999999;" parent="8VcgCAM9icAOnQxPm49f-36" vertex="1">
          <mxGeometry x="61.875" y="16" width="13.75" height="11.428571428571429" as="geometry" />
        </mxCell>
        <mxCell id="8VcgCAM9icAOnQxPm49f-45" value="Sa" style="strokeWidth=1;shadow=0;dashed=0;align=center;html=1;shape=mxgraph.mockup.forms.anchor;fontColor=#999999;" parent="8VcgCAM9icAOnQxPm49f-36" vertex="1">
          <mxGeometry x="75.625" y="16" width="13.75" height="11.428571428571429" as="geometry" />
        </mxCell>
        <mxCell id="8VcgCAM9icAOnQxPm49f-46" value="Su" style="strokeWidth=1;shadow=0;dashed=0;align=center;html=1;shape=mxgraph.mockup.forms.anchor;fontColor=#999999;" parent="8VcgCAM9icAOnQxPm49f-36" vertex="1">
          <mxGeometry x="89.375" y="16" width="13.75" height="11.428571428571429" as="geometry" />
        </mxCell>
        <mxCell id="8VcgCAM9icAOnQxPm49f-47" value="1" style="strokeWidth=1;shadow=0;dashed=0;align=center;html=1;shape=mxgraph.mockup.forms.rrect;rSize=0;strokeColor=#999999;fontColor=#999999;" parent="8VcgCAM9icAOnQxPm49f-36" vertex="1">
          <mxGeometry x="6.875" y="27.428571428571427" width="13.75" height="11.428571428571429" as="geometry" />
        </mxCell>
        <mxCell id="8VcgCAM9icAOnQxPm49f-48" value="2" style="strokeWidth=1;shadow=0;dashed=0;align=center;html=1;shape=mxgraph.mockup.forms.rrect;rSize=0;strokeColor=#999999;fontColor=#999999;" parent="8VcgCAM9icAOnQxPm49f-36" vertex="1">
          <mxGeometry x="20.625" y="27.428571428571427" width="13.75" height="11.428571428571429" as="geometry" />
        </mxCell>
        <mxCell id="8VcgCAM9icAOnQxPm49f-49" value="3" style="strokeWidth=1;shadow=0;dashed=0;align=center;html=1;shape=mxgraph.mockup.forms.rrect;rSize=0;strokeColor=#999999;fontColor=#999999;" parent="8VcgCAM9icAOnQxPm49f-36" vertex="1">
          <mxGeometry x="34.375" y="27.428571428571427" width="13.75" height="11.428571428571429" as="geometry" />
        </mxCell>
        <mxCell id="8VcgCAM9icAOnQxPm49f-50" value="4" style="strokeWidth=1;shadow=0;dashed=0;align=center;html=1;shape=mxgraph.mockup.forms.rrect;rSize=0;strokeColor=#999999;fontColor=#999999;" parent="8VcgCAM9icAOnQxPm49f-36" vertex="1">
          <mxGeometry x="48.125" y="27.428571428571427" width="13.75" height="11.428571428571429" as="geometry" />
        </mxCell>
        <mxCell id="8VcgCAM9icAOnQxPm49f-51" value="5" style="strokeWidth=1;shadow=0;dashed=0;align=center;html=1;shape=mxgraph.mockup.forms.rrect;rSize=0;strokeColor=#999999;fontColor=#999999;" parent="8VcgCAM9icAOnQxPm49f-36" vertex="1">
          <mxGeometry x="61.875" y="27.428571428571427" width="13.75" height="11.428571428571429" as="geometry" />
        </mxCell>
        <mxCell id="8VcgCAM9icAOnQxPm49f-52" value="6" style="strokeWidth=1;shadow=0;dashed=0;align=center;html=1;shape=mxgraph.mockup.forms.rrect;rSize=0;strokeColor=#999999;fontColor=#999999;" parent="8VcgCAM9icAOnQxPm49f-36" vertex="1">
          <mxGeometry x="75.625" y="27.428571428571427" width="13.75" height="11.428571428571429" as="geometry" />
        </mxCell>
        <mxCell id="8VcgCAM9icAOnQxPm49f-53" value="7" style="strokeWidth=1;shadow=0;dashed=0;align=center;html=1;shape=mxgraph.mockup.forms.rrect;rSize=0;strokeColor=#999999;fontColor=#999999;" parent="8VcgCAM9icAOnQxPm49f-36" vertex="1">
          <mxGeometry x="89.375" y="27.428571428571427" width="13.75" height="11.428571428571429" as="geometry" />
        </mxCell>
        <mxCell id="8VcgCAM9icAOnQxPm49f-54" value="8" style="strokeWidth=1;shadow=0;dashed=0;align=center;html=1;shape=mxgraph.mockup.forms.rrect;rSize=0;strokeColor=#999999;fontColor=#999999;" parent="8VcgCAM9icAOnQxPm49f-36" vertex="1">
          <mxGeometry x="6.875" y="38.85714285714286" width="13.75" height="11.428571428571429" as="geometry" />
        </mxCell>
        <mxCell id="8VcgCAM9icAOnQxPm49f-55" value="9" style="strokeWidth=1;shadow=0;dashed=0;align=center;html=1;shape=mxgraph.mockup.forms.rrect;rSize=0;strokeColor=#999999;fontColor=#999999;" parent="8VcgCAM9icAOnQxPm49f-36" vertex="1">
          <mxGeometry x="20.625" y="38.85714285714286" width="13.75" height="11.428571428571429" as="geometry" />
        </mxCell>
        <mxCell id="8VcgCAM9icAOnQxPm49f-56" value="10" style="strokeWidth=1;shadow=0;dashed=0;align=center;html=1;shape=mxgraph.mockup.forms.rrect;rSize=0;strokeColor=#999999;fontColor=#999999;" parent="8VcgCAM9icAOnQxPm49f-36" vertex="1">
          <mxGeometry x="34.375" y="38.85714285714286" width="13.75" height="11.428571428571429" as="geometry" />
        </mxCell>
        <mxCell id="8VcgCAM9icAOnQxPm49f-57" value="11" style="strokeWidth=1;shadow=0;dashed=0;align=center;html=1;shape=mxgraph.mockup.forms.rrect;rSize=0;strokeColor=#999999;fontColor=#999999;" parent="8VcgCAM9icAOnQxPm49f-36" vertex="1">
          <mxGeometry x="48.125" y="38.85714285714286" width="13.75" height="11.428571428571429" as="geometry" />
        </mxCell>
        <mxCell id="8VcgCAM9icAOnQxPm49f-58" value="12" style="strokeWidth=1;shadow=0;dashed=0;align=center;html=1;shape=mxgraph.mockup.forms.rrect;rSize=0;strokeColor=#999999;fontColor=#999999;" parent="8VcgCAM9icAOnQxPm49f-36" vertex="1">
          <mxGeometry x="61.875" y="38.85714285714286" width="13.75" height="11.428571428571429" as="geometry" />
        </mxCell>
        <mxCell id="8VcgCAM9icAOnQxPm49f-59" value="13" style="strokeWidth=1;shadow=0;dashed=0;align=center;html=1;shape=mxgraph.mockup.forms.rrect;rSize=0;strokeColor=#999999;fontColor=#999999;" parent="8VcgCAM9icAOnQxPm49f-36" vertex="1">
          <mxGeometry x="75.625" y="38.85714285714286" width="13.75" height="11.428571428571429" as="geometry" />
        </mxCell>
        <mxCell id="8VcgCAM9icAOnQxPm49f-60" value="14" style="strokeWidth=1;shadow=0;dashed=0;align=center;html=1;shape=mxgraph.mockup.forms.rrect;rSize=0;strokeColor=#999999;fontColor=#999999;" parent="8VcgCAM9icAOnQxPm49f-36" vertex="1">
          <mxGeometry x="89.375" y="38.85714285714286" width="13.75" height="11.428571428571429" as="geometry" />
        </mxCell>
        <mxCell id="8VcgCAM9icAOnQxPm49f-61" value="15" style="strokeWidth=1;shadow=0;dashed=0;align=center;html=1;shape=mxgraph.mockup.forms.rrect;rSize=0;strokeColor=#999999;fontColor=#999999;" parent="8VcgCAM9icAOnQxPm49f-36" vertex="1">
          <mxGeometry x="6.875" y="50.28571428571428" width="13.75" height="11.428571428571429" as="geometry" />
        </mxCell>
        <mxCell id="8VcgCAM9icAOnQxPm49f-62" value="16" style="strokeWidth=1;shadow=0;dashed=0;align=center;html=1;shape=mxgraph.mockup.forms.rrect;rSize=0;strokeColor=#999999;fontColor=#999999;" parent="8VcgCAM9icAOnQxPm49f-36" vertex="1">
          <mxGeometry x="20.625" y="50.28571428571428" width="13.75" height="11.428571428571429" as="geometry" />
        </mxCell>
        <mxCell id="8VcgCAM9icAOnQxPm49f-63" value="17" style="strokeWidth=1;shadow=0;dashed=0;align=center;html=1;shape=mxgraph.mockup.forms.rrect;rSize=0;strokeColor=#999999;fontColor=#999999;" parent="8VcgCAM9icAOnQxPm49f-36" vertex="1">
          <mxGeometry x="34.375" y="50.28571428571428" width="13.75" height="11.428571428571429" as="geometry" />
        </mxCell>
        <mxCell id="8VcgCAM9icAOnQxPm49f-64" value="18" style="strokeWidth=1;shadow=0;dashed=0;align=center;html=1;shape=mxgraph.mockup.forms.rrect;rSize=0;strokeColor=#999999;fontColor=#999999;" parent="8VcgCAM9icAOnQxPm49f-36" vertex="1">
          <mxGeometry x="48.125" y="50.28571428571428" width="13.75" height="11.428571428571429" as="geometry" />
        </mxCell>
        <mxCell id="8VcgCAM9icAOnQxPm49f-65" value="19" style="strokeWidth=1;shadow=0;dashed=0;align=center;html=1;shape=mxgraph.mockup.forms.rrect;rSize=0;strokeColor=#999999;fontColor=#999999;" parent="8VcgCAM9icAOnQxPm49f-36" vertex="1">
          <mxGeometry x="61.875" y="50.28571428571428" width="13.75" height="11.428571428571429" as="geometry" />
        </mxCell>
        <mxCell id="8VcgCAM9icAOnQxPm49f-66" value="20" style="strokeWidth=1;shadow=0;dashed=0;align=center;html=1;shape=mxgraph.mockup.forms.rrect;rSize=0;strokeColor=#999999;fontColor=#999999;" parent="8VcgCAM9icAOnQxPm49f-36" vertex="1">
          <mxGeometry x="75.625" y="50.28571428571428" width="13.75" height="11.428571428571429" as="geometry" />
        </mxCell>
        <mxCell id="8VcgCAM9icAOnQxPm49f-67" value="21" style="strokeWidth=1;shadow=0;dashed=0;align=center;html=1;shape=mxgraph.mockup.forms.rrect;rSize=0;strokeColor=#999999;fontColor=#999999;" parent="8VcgCAM9icAOnQxPm49f-36" vertex="1">
          <mxGeometry x="89.375" y="50.28571428571428" width="13.75" height="11.428571428571429" as="geometry" />
        </mxCell>
        <mxCell id="8VcgCAM9icAOnQxPm49f-68" value="22" style="strokeWidth=1;shadow=0;dashed=0;align=center;html=1;shape=mxgraph.mockup.forms.rrect;rSize=0;strokeColor=#999999;fontColor=#999999;" parent="8VcgCAM9icAOnQxPm49f-36" vertex="1">
          <mxGeometry x="6.875" y="61.714285714285715" width="13.75" height="11.428571428571429" as="geometry" />
        </mxCell>
        <mxCell id="8VcgCAM9icAOnQxPm49f-69" value="23" style="strokeWidth=1;shadow=0;dashed=0;align=center;html=1;shape=mxgraph.mockup.forms.rrect;rSize=0;strokeColor=#999999;fontColor=#999999;" parent="8VcgCAM9icAOnQxPm49f-36" vertex="1">
          <mxGeometry x="20.625" y="61.714285714285715" width="13.75" height="11.428571428571429" as="geometry" />
        </mxCell>
        <mxCell id="8VcgCAM9icAOnQxPm49f-70" value="25" style="strokeWidth=1;shadow=0;dashed=0;align=center;html=1;shape=mxgraph.mockup.forms.rrect;rSize=0;strokeColor=#999999;fontColor=#999999;" parent="8VcgCAM9icAOnQxPm49f-36" vertex="1">
          <mxGeometry x="48.125" y="61.714285714285715" width="13.75" height="11.428571428571429" as="geometry" />
        </mxCell>
        <mxCell id="8VcgCAM9icAOnQxPm49f-71" value="26" style="strokeWidth=1;shadow=0;dashed=0;align=center;html=1;shape=mxgraph.mockup.forms.rrect;rSize=0;strokeColor=#999999;fontColor=#999999;" parent="8VcgCAM9icAOnQxPm49f-36" vertex="1">
          <mxGeometry x="61.875" y="61.714285714285715" width="13.75" height="11.428571428571429" as="geometry" />
        </mxCell>
        <mxCell id="8VcgCAM9icAOnQxPm49f-72" value="27" style="strokeWidth=1;shadow=0;dashed=0;align=center;html=1;shape=mxgraph.mockup.forms.rrect;rSize=0;strokeColor=#999999;fontColor=#999999;" parent="8VcgCAM9icAOnQxPm49f-36" vertex="1">
          <mxGeometry x="75.625" y="61.714285714285715" width="13.75" height="11.428571428571429" as="geometry" />
        </mxCell>
        <mxCell id="8VcgCAM9icAOnQxPm49f-73" value="28" style="strokeWidth=1;shadow=0;dashed=0;align=center;html=1;shape=mxgraph.mockup.forms.rrect;rSize=0;strokeColor=#999999;fontColor=#999999;" parent="8VcgCAM9icAOnQxPm49f-36" vertex="1">
          <mxGeometry x="89.375" y="61.714285714285715" width="13.75" height="11.428571428571429" as="geometry" />
        </mxCell>
        <mxCell id="8VcgCAM9icAOnQxPm49f-74" value="29" style="strokeWidth=1;shadow=0;dashed=0;align=center;html=1;shape=mxgraph.mockup.forms.rrect;rSize=0;strokeColor=#999999;fontColor=#999999;" parent="8VcgCAM9icAOnQxPm49f-36" vertex="1">
          <mxGeometry x="6.875" y="73.14285714285714" width="13.75" height="11.428571428571429" as="geometry" />
        </mxCell>
        <mxCell id="8VcgCAM9icAOnQxPm49f-75" value="30" style="strokeWidth=1;shadow=0;dashed=0;align=center;html=1;shape=mxgraph.mockup.forms.rrect;rSize=0;strokeColor=#999999;fontColor=#999999;" parent="8VcgCAM9icAOnQxPm49f-36" vertex="1">
          <mxGeometry x="20.625" y="73.14285714285714" width="13.75" height="11.428571428571429" as="geometry" />
        </mxCell>
        <mxCell id="8VcgCAM9icAOnQxPm49f-76" value="31" style="strokeWidth=1;shadow=0;dashed=0;align=center;html=1;shape=mxgraph.mockup.forms.rrect;rSize=0;strokeColor=#999999;fontColor=#999999;" parent="8VcgCAM9icAOnQxPm49f-36" vertex="1">
          <mxGeometry x="34.375" y="73.14285714285714" width="13.75" height="11.428571428571429" as="geometry" />
        </mxCell>
        <mxCell id="8VcgCAM9icAOnQxPm49f-77" value="1" style="strokeWidth=1;shadow=0;dashed=0;align=center;html=1;shape=mxgraph.mockup.forms.rrect;rSize=0;strokeColor=#999999;fontColor=#999999;fillColor=#ddeeff;" parent="8VcgCAM9icAOnQxPm49f-36" vertex="1">
          <mxGeometry x="48.125" y="73.14285714285714" width="13.75" height="11.428571428571429" as="geometry" />
        </mxCell>
        <mxCell id="8VcgCAM9icAOnQxPm49f-78" value="2" style="strokeWidth=1;shadow=0;dashed=0;align=center;html=1;shape=mxgraph.mockup.forms.rrect;rSize=0;strokeColor=#999999;fontColor=#999999;fillColor=#ddeeff;" parent="8VcgCAM9icAOnQxPm49f-36" vertex="1">
          <mxGeometry x="61.875" y="73.14285714285714" width="13.75" height="11.428571428571429" as="geometry" />
        </mxCell>
        <mxCell id="8VcgCAM9icAOnQxPm49f-79" value="3" style="strokeWidth=1;shadow=0;dashed=0;align=center;html=1;shape=mxgraph.mockup.forms.rrect;rSize=0;strokeColor=#999999;fontColor=#999999;fillColor=#ddeeff;" parent="8VcgCAM9icAOnQxPm49f-36" vertex="1">
          <mxGeometry x="75.625" y="73.14285714285714" width="13.75" height="11.428571428571429" as="geometry" />
        </mxCell>
        <mxCell id="8VcgCAM9icAOnQxPm49f-80" value="4" style="strokeWidth=1;shadow=0;dashed=0;align=center;html=1;shape=mxgraph.mockup.forms.rrect;rSize=0;strokeColor=#999999;fontColor=#999999;fillColor=#ddeeff;" parent="8VcgCAM9icAOnQxPm49f-36" vertex="1">
          <mxGeometry x="89.375" y="73.14285714285714" width="13.75" height="11.428571428571429" as="geometry" />
        </mxCell>
        <mxCell id="8VcgCAM9icAOnQxPm49f-81" value="5" style="strokeWidth=1;shadow=0;dashed=0;align=center;html=1;shape=mxgraph.mockup.forms.rrect;rSize=0;strokeColor=#999999;fontColor=#999999;fillColor=#ddeeff;" parent="8VcgCAM9icAOnQxPm49f-36" vertex="1">
          <mxGeometry x="6.875" y="84.57142857142858" width="13.75" height="11.428571428571429" as="geometry" />
        </mxCell>
        <mxCell id="8VcgCAM9icAOnQxPm49f-82" value="6" style="strokeWidth=1;shadow=0;dashed=0;align=center;html=1;shape=mxgraph.mockup.forms.rrect;rSize=0;strokeColor=#999999;fontColor=#999999;fillColor=#ddeeff;" parent="8VcgCAM9icAOnQxPm49f-36" vertex="1">
          <mxGeometry x="20.625" y="84.57142857142858" width="13.75" height="11.428571428571429" as="geometry" />
        </mxCell>
        <mxCell id="8VcgCAM9icAOnQxPm49f-83" value="7" style="strokeWidth=1;shadow=0;dashed=0;align=center;html=1;shape=mxgraph.mockup.forms.rrect;rSize=0;strokeColor=#999999;fontColor=#999999;fillColor=#ddeeff;" parent="8VcgCAM9icAOnQxPm49f-36" vertex="1">
          <mxGeometry x="34.375" y="84.57142857142858" width="13.75" height="11.428571428571429" as="geometry" />
        </mxCell>
        <mxCell id="8VcgCAM9icAOnQxPm49f-84" value="8" style="strokeWidth=1;shadow=0;dashed=0;align=center;html=1;shape=mxgraph.mockup.forms.rrect;rSize=0;strokeColor=#999999;fontColor=#999999;fillColor=#ddeeff;" parent="8VcgCAM9icAOnQxPm49f-36" vertex="1">
          <mxGeometry x="48.125" y="84.57142857142858" width="13.75" height="11.428571428571429" as="geometry" />
        </mxCell>
        <mxCell id="8VcgCAM9icAOnQxPm49f-85" value="9" style="strokeWidth=1;shadow=0;dashed=0;align=center;html=1;shape=mxgraph.mockup.forms.rrect;rSize=0;strokeColor=#999999;fontColor=#999999;fillColor=#ddeeff;" parent="8VcgCAM9icAOnQxPm49f-36" vertex="1">
          <mxGeometry x="61.875" y="84.57142857142858" width="13.75" height="11.428571428571429" as="geometry" />
        </mxCell>
        <mxCell id="8VcgCAM9icAOnQxPm49f-86" value="10" style="strokeWidth=1;shadow=0;dashed=0;align=center;html=1;shape=mxgraph.mockup.forms.rrect;rSize=0;strokeColor=#999999;fontColor=#999999;fillColor=#ddeeff;" parent="8VcgCAM9icAOnQxPm49f-36" vertex="1">
          <mxGeometry x="75.625" y="84.57142857142858" width="13.75" height="11.428571428571429" as="geometry" />
        </mxCell>
        <mxCell id="8VcgCAM9icAOnQxPm49f-87" value="11" style="strokeWidth=1;shadow=0;dashed=0;align=center;html=1;shape=mxgraph.mockup.forms.rrect;rSize=0;strokeColor=#999999;fontColor=#999999;fillColor=#ddeeff;" parent="8VcgCAM9icAOnQxPm49f-36" vertex="1">
          <mxGeometry x="89.375" y="84.57142857142858" width="13.75" height="11.428571428571429" as="geometry" />
        </mxCell>
        <mxCell id="8VcgCAM9icAOnQxPm49f-88" value="24" style="strokeWidth=1;shadow=0;dashed=0;align=center;html=1;shape=mxgraph.mockup.forms.rrect;rSize=0;strokeColor=#ff0000;fontColor=#ffffff;strokeWidth=2;fillColor=#008cff;" parent="8VcgCAM9icAOnQxPm49f-36" vertex="1">
          <mxGeometry x="34.375" y="61.714285714285715" width="13.75" height="11.428571428571429" as="geometry" />
        </mxCell>
        <mxCell id="8VcgCAM9icAOnQxPm49f-89" value="&lt;font style=&quot;&quot;&gt;&lt;span style=&quot;font-size: 11px;&quot;&gt;&lt;b&gt;Upcoming&amp;nbsp;Events&lt;/b&gt;&lt;/span&gt;&lt;/font&gt;" style="text;html=1;strokeColor=none;fillColor=none;align=center;verticalAlign=middle;whiteSpace=wrap;rounded=0;" parent="1" vertex="1">
          <mxGeometry x="945" y="573" width="110" height="30" as="geometry" />
        </mxCell>
        <mxCell id="8VcgCAM9icAOnQxPm49f-90" value="Search" style="strokeWidth=1;shadow=0;dashed=0;align=center;html=1;shape=mxgraph.mockup.forms.searchBox;strokeColor=#999999;mainText=;strokeColor2=#008cff;fontColor=#666666;fontSize=17;align=left;spacingLeft=3;whiteSpace=wrap;" parent="1" vertex="1">
          <mxGeometry x="47" y="185" width="183" height="25" as="geometry" />
        </mxCell>
        <mxCell id="8VcgCAM9icAOnQxPm49f-91" value="" style="strokeColor=#999999;verticalLabelPosition=bottom;shadow=0;dashed=0;verticalAlign=top;strokeWidth=2;html=1;shape=mxgraph.mockup.misc.shareIcon;" parent="1" vertex="1">
          <mxGeometry x="203" y="694" width="22" height="20" as="geometry" />
        </mxCell>
        <mxCell id="8VcgCAM9icAOnQxPm49f-92" value="&lt;b&gt;&lt;font style=&quot;font-size: 10px;&quot;&gt;+94 71 234 5678&amp;nbsp;&lt;/font&gt;&lt;/b&gt;" style="text;html=1;strokeColor=none;fillColor=none;align=center;verticalAlign=middle;whiteSpace=wrap;rounded=0;" parent="1" vertex="1">
          <mxGeometry x="94" y="689" width="90" height="30" as="geometry" />
        </mxCell>
        <mxCell id="8VcgCAM9icAOnQxPm49f-93" value="" style="shape=mxgraph.signs.tech.telephone_3;html=1;pointerEvents=1;fillColor=#000000;strokeColor=none;verticalLabelPosition=bottom;verticalAlign=top;align=center;" parent="1" vertex="1">
          <mxGeometry x="82" y="693" width="12" height="21" as="geometry" />
        </mxCell>
        <mxCell id="8VcgCAM9icAOnQxPm49f-94" value="Lorem ipsum dolor sit amet, consectetur adipisicing elit, sed do eiusmod tempor incididunt ut labore et dolore magna aliqua. Ut enim ad minim veniam, quis nostrud exercitation ullamco laboris nisi ut aliquip ex ea commodo consequat. Duis aute irure dolor in reprehenderit in voluptate velit esse cillum dolore eu fugiat nulla pariatur. Excepteur sint occaecat cupidatat non proident, sunt in culpa qui officia deserunt mollit anim id est laborum.&#xa;Sed ut perspiciatis unde omnis iste natus error sit voluptatem accusantium doloremque laudantium, totam rem aperiam, eaque ipsa quae ab illo inventore veritatis et quasi architecto beatae vitae dicta sunt explicabo. Nemo enim ipsam voluptatem quia voluptas sit aspernatur aut odit aut fugit, sed quia consequuntur magni dolores eos qui ratione voluptatem sequi nesciunt. Neque porro quisquam est, qui dolorem ipsum quia dolor sit amet, consectetur, adipisci velit, sed quia non numquam eius modi tempora incidunt ut labore et dolore magnam aliquam quaerat voluptatem. Ut enim ad minima veniam, quis nostrum exercitationem ullam corporis suscipit laboriosam, nisi ut aliquid ex ea commodi consequatur? Quis autem vel eum iure reprehenderit qui in ea voluptate velit esse quam nihil molestiae consequatur, vel illum qui dolorem eum fugiat quo voluptas nulla pariatur?" style="text;spacingTop=-5;whiteSpace=wrap;html=1;align=left;fontSize=12;fontFamily=Helvetica;fillColor=none;strokeColor=none;" parent="1" vertex="1">
          <mxGeometry x="244" y="550.85" width="689" height="250" as="geometry" />
        </mxCell>
        <mxCell id="8VcgCAM9icAOnQxPm49f-95" value="" style="verticalLabelPosition=bottom;shadow=0;dashed=0;align=center;html=1;verticalAlign=top;strokeWidth=1;shape=mxgraph.mockup.graphics.simpleIcon;strokeColor=#999999;fillColor=#ffffff;" parent="1" vertex="1">
          <mxGeometry x="58" y="451" width="34" height="38" as="geometry" />
        </mxCell>
        <mxCell id="8VcgCAM9icAOnQxPm49f-96" value="" style="verticalLabelPosition=bottom;shadow=0;dashed=0;align=center;html=1;verticalAlign=top;strokeWidth=1;shape=mxgraph.mockup.graphics.simpleIcon;strokeColor=#999999;fillColor=#ffffff;" parent="1" vertex="1">
          <mxGeometry x="122" y="451" width="34" height="38" as="geometry" />
        </mxCell>
        <mxCell id="8VcgCAM9icAOnQxPm49f-97" value="" style="verticalLabelPosition=bottom;shadow=0;dashed=0;align=center;html=1;verticalAlign=top;strokeWidth=1;shape=mxgraph.mockup.graphics.simpleIcon;strokeColor=#999999;fillColor=#ffffff;" parent="1" vertex="1">
          <mxGeometry x="187" y="451" width="34" height="38" as="geometry" />
        </mxCell>
        <mxCell id="8VcgCAM9icAOnQxPm49f-98" value="&lt;font style=&quot;&quot;&gt;&lt;span style=&quot;font-size: 11px;&quot;&gt;&lt;b&gt;Office Location&lt;/b&gt;&lt;/span&gt;&lt;/font&gt;" style="text;html=1;strokeColor=none;fillColor=none;align=center;verticalAlign=middle;whiteSpace=wrap;rounded=0;" parent="1" vertex="1">
          <mxGeometry x="50" y="520.85" width="90" height="30" as="geometry" />
        </mxCell>
        <mxCell id="8VcgCAM9icAOnQxPm49f-100" value="" style="verticalLabelPosition=bottom;shadow=0;dashed=0;align=center;html=1;verticalAlign=top;strokeWidth=1;shape=mxgraph.mockup.graphics.simpleIcon;strokeColor=#999999;" parent="1" vertex="1">
          <mxGeometry x="960" y="420" width="80" height="60" as="geometry" />
        </mxCell>
        <mxCell id="8VcgCAM9icAOnQxPm49f-102" value="" style="verticalLabelPosition=bottom;shadow=0;dashed=0;align=center;html=1;verticalAlign=top;strokeWidth=1;shape=mxgraph.mockup.graphics.simpleIcon;strokeColor=#999999;" parent="1" vertex="1">
          <mxGeometry x="960" y="490.85" width="80" height="60" as="geometry" />
        </mxCell>
        <mxCell id="8VcgCAM9icAOnQxPm49f-103" value="" style="verticalLabelPosition=bottom;shadow=0;dashed=0;align=center;html=1;verticalAlign=top;strokeWidth=1;shape=mxgraph.mockup.graphics.simpleIcon;strokeColor=#999999;fillColor=#ffffff;" parent="1" vertex="1">
          <mxGeometry x="240" y="183" width="140" height="27" as="geometry" />
        </mxCell>
        <mxCell id="oB8qYLPPEonIr6U2i-20-1" value="&lt;font size=&quot;1&quot; face=&quot;Comic Sans MS&quot; style=&quot;&quot;&gt;&lt;b style=&quot;font-size: 22px;&quot;&gt;EduTeach&lt;/b&gt;&lt;/font&gt;" style="text;html=1;strokeColor=none;fillColor=none;align=center;verticalAlign=middle;whiteSpace=wrap;rounded=0;" vertex="1" parent="1">
          <mxGeometry x="106" y="142" width="160" height="30" as="geometry" />
        </mxCell>
      </root>
    </mxGraphModel>
  </diagram>
</mxfile>
